<?xml version="1.0" encoding="utf-8"?>
<!-- Generator: Adobe Illustrator 17.0.0, SVG Export Plug-In . SVG Version: 6.00 Build 0)  -->
<!DOCTYPE svg PUBLIC "-//W3C//DTD SVG 1.1//EN" "http://www.w3.org/Graphics/SVG/1.1/DTD/svg11.dtd">
<svg version="1.1" id="图层_1" xmlns="http://www.w3.org/2000/svg" xmlns:xlink="http://www.w3.org/1999/xlink" x="0px" y="0px"
	 width="385.2px" height="845.7px" viewBox="230.25 -230.25 385.2 845.7" enable-background="new 230.25 -230.25 385.2 845.7"
	 xml:space="preserve">
<g>
	<path fill="none" stroke="#F4F5F6" stroke-miterlimit="10" d="M530.25-51.05l-85.3-179.2l85.3,28.1l72.8,108.9L530.25-51.05z"/>
	<path fill="none" stroke="#F4F5F6" stroke-miterlimit="10" d="M465.45-10.35l64.8-40.7l72.8-42.2l-37.6,82.9H465.45z M540.45,73.75
		l-75-84.1h100l25.3,150L540.45,73.75z"/>
	<path fill="none" stroke="#F4F5F6" stroke-miterlimit="10" d="M490.65,217.75l49.8-144l50.3,65.9l-25.3,50L490.65,217.75z
		 M517.05,528.95l-51.6-139.3h100l50,70.3L517.05,528.95z"/>
	<path fill="none" stroke="#F4F5F6" stroke-miterlimit="10" d="M444.95,569.75l72.1-40.8l98.4-69l-85.2,137.9L444.95,569.75z
		 M524.05,339.65l-33.4-121.9l74.8-28.1l37.6,100L524.05,339.65z"/>
	<path fill="none" stroke="#F4F5F6" stroke-miterlimit="10" d="M465.45,389.65l58.6-50l79-50l-37.6,100H465.45z M415.45-140.65
		l-50-43.9l79.5-45.7l85.3,179.2L415.45-140.65z"/>
	<path fill="none" stroke="#F4F5F6" stroke-miterlimit="10" d="M332.55,64.65l82.9-205.3l114.8,89.6l-64.8,40.7L332.55,64.65z"/>
	<path fill="none" stroke="#F4F5F6" stroke-miterlimit="10" d="M365.45,89.65l-32.9-25l132.9-75l75,84.1L365.45,89.65z"/>
	<path fill="none" stroke="#F4F5F6" stroke-miterlimit="10" d="M457.25,234.65l-91.8-145l175-15.9l-49.8,144L457.25,234.65z
		 M397.55,467.25l8.8-50.9l59.1-26.7l51.6,139.3L397.55,467.25z"/>
	<path fill="none" stroke="#F4F5F6" stroke-miterlimit="10" d="M365.45,615.45l32.1-148.2l119.5,61.7l-72.1,40.8L365.45,615.45z
		 M365.45,289.65l91.8-55l33.4-16.9l33.4,121.9L365.45,289.65z M406.35,416.35l-40.9-126.7l158.6,50l-58.6,50L406.35,416.35z
		 M303.05-93.25l-72.8-108.9l135.2,17.6l50,43.9L303.05-93.25z"/>
	<path fill="none" stroke="#F4F5F6" stroke-miterlimit="10" d="M265.45-10.35l37.6-82.9l112.4-47.4l-82.9,205.3L265.45-10.35z"/>
	<path fill="none" stroke="#F4F5F6" stroke-miterlimit="10" d="M290.75,139.65l-25.3-150l67.1,75l32.9,25L290.75,139.65z"/>
	<path fill="none" stroke="#F4F5F6" stroke-miterlimit="10" d="M265.45,189.65l25.3-50l74.7-50l91.8,145L265.45,189.65z
		 M315.45,459.95l-50-70.3l140.9,26.7l-8.8,50.9L315.45,459.95z"/>
	<path fill="none" stroke="#F4F5F6" stroke-miterlimit="10" d="M230.25,597.85l85.2-137.9l82.1,7.3l-32.1,148.2L230.25,597.85z
		 M303.05,289.65l-37.6-100l191.8,45l-91.8,55H303.05z M265.45,389.65l37.6-100h62.4l40.9,126.7L265.45,389.65z"/>
</g>
</svg>
